<svg width="192" height="192" viewBox="0 0 192 192" fill="none" xmlns="http://www.w3.org/2000/svg">
<rect width="192" height="192" rx="24" fill="#14b8a6"/>
<g transform="translate(48, 40)">
  <!-- Heart icon representing care -->
  <path d="M48 20C48 9 40 2 30 2C23 2 17 6 14 12C11 6 5 2 -2 2C-12 2 -20 9 -20 20C-20 40 14 55 48 85C82 55 116 40 116 20C116 9 108 2 98 2C91 2 85 6 82 12C79 6 73 2 66 2C56 2 48 9 48 20Z"
        fill="white" transform="translate(0, 5) scale(0.9)"/>
  <!-- Cross representing faith -->
  <rect x="42" y="60" width="12" height="45" fill="white" rx="2"/>
  <rect x="30" y="72" width="36" height="12" fill="white" rx="2"/>
</g>
</svg>
